<svg width="21.000000" height="21.000000" viewBox="0 0 21 21" fill="none" xmlns="http://www.w3.org/2000/svg" xmlns:xlink="http://www.w3.org/1999/xlink">
	<desc>
			Created with Pixso.
	</desc>
	<defs>
		<clipPath id="clip36_7">
			<rect id="restore_from_trash" width="21.000000" height="21.000000" fill="white" fill-opacity="0"/>
		</clipPath>
	</defs>
	<rect id="restore_from_trash" width="21.000000" height="21.000000" fill="#FFFFFF" fill-opacity="0"/>
	<g clip-path="url(#clip36_7)">
		<path id="矢量 254" d="M16.62 3.5L13.56 3.5L12.68 2.62L8.31 2.62L7.43 3.5L4.37 3.5L4.37 5.25L16.62 5.25L16.62 3.5ZM5.25 6.12L5.25 16.62C5.25 17.58 6.03 18.37 7 18.37L14 18.37C14.96 18.37 15.75 17.58 15.75 16.62L15.75 6.12L5.25 6.12ZM12.25 12.25L12.25 15.75L8.75 15.75L8.75 12.25L7 12.25L10.5 8.75L14 12.25L12.25 12.25Z" fill="#444444" fill-opacity="1.000000" fill-rule="evenodd"/>
	</g>
</svg>
